<svg id="Layer_1" data-name="Layer 1" xmlns="http://www.w3.org/2000/svg" viewBox="0 0 1553.18 322.19"><defs><style>.cls-1{fill:#fefefe;}</style></defs><title>MS_logo_CBlue_partial</title><path class="cls-1" d="M1710.19,202.25c0,47.5-.05,95,.1,142.5,0,3.75-.85,4.59-4.6,4.59q-601-.15-1202-.09H319.19c-.47-3.09,2.19-4.29,3.83-5.94q54-54.14,108.1-108.18l42.41-42.41c4.46-4.47,4.47-4.49,0-9q-75.09-75.1-150.16-150.23c-1.76-1.77-4.53-3-4.18-6.29q693.25,0,1386.5-.09c3.75,0,4.61.84,4.6,4.59q-.22,74.75-.1,149.5c-2.84-.52-2.11-2.94-2.42-4.71-1.32-7.73-2.89-15.35-6.15-22.58-6.9-15.29-18.51-24.46-35-27.49-21.8-4-41.77-.28-58.94,14.41a57.19,57.19,0,0,0-17.53,27.41c-5.62,18.45-5.55,36.9,1.77,54.82,7.78,19.06,22.38,30.6,42.21,35.66,20.15,5.15,40,3.49,59.49-3.07,6-2,6.32-2.74,6.13-9.11-.14-4.82-1.3-9.57-1-14.43.15-2.55-.88-3.39-3.3-2.06a56.64,56.64,0,0,1-12.58,4.81c-13.61,3.69-27.24,4.52-40.75-.44-11.42-4.19-19-12-22-24-1.83-7.36-.85-8.61,6.68-8.62q37.47-.06,74.95,0C1704.58,201.91,1707.44,201.18,1710.19,202.25Z" transform="translate(-157.11 -27.16)"/><path d="M319.19,27.25c1.07,1.23,2.06,2.54,3.21,3.69q76.86,76.9,153.82,153.69c2.95,2.94,3,4.29,0,7.23q-77,76.72-153.82,153.69c-1.15,1.15-2.14,2.46-3.21,3.69h-2a23.26,23.26,0,0,1-5.48-4.27q-75.1-75.15-150.25-150.25a23.25,23.25,0,0,1-4.27-5.48v-2a23.25,23.25,0,0,1,4.27-5.48q75.15-75.1,150.25-150.25a23.25,23.25,0,0,1,5.48-4.27Z" transform="translate(-157.11 -27.16)"/><path class="cls-1" d="M317.19,27.25a31.39,31.39,0,0,1-2.14,2.64q-77.6,77.63-155.23,155.23a31.38,31.38,0,0,1-2.64,2.14q0-78.13-.08-156.26c0-3.12.7-3.83,3.82-3.82Q239.07,27.34,317.19,27.25Z" transform="translate(-157.11 -27.16)"/><path class="cls-1" d="M157.19,189.25a31.4,31.4,0,0,1,2.64,2.14Q237.46,269,315.06,346.62a31.38,31.38,0,0,1,2.13,2.64q-78.13,0-156.26.08c-3.12,0-3.83-.7-3.82-3.82Q157.28,267.38,157.19,189.25Z" transform="translate(-157.11 -27.16)"/><path d="M1710.19,202.25c-1.71,1.37-3.74,1-5.68,1q-40.23,0-80.46,0c-2.87,0-3.86-.32-3.17,3.89,2.69,16.46,13.22,24.82,28.15,28,17.73,3.72,34.79.59,51.21-9.19-.82,9.07,1.28,17.44,1,26-.07,1.85-.62,2.73-2.57,3.49-10,3.92-20.32,5.85-31,7.15a86.71,86.71,0,0,1-45.7-6.47c-18-7.81-29.52-22.09-34.27-41s-4.11-37.87,4.6-55.75c9.15-18.77,24.26-29.85,44.79-34.11,14.3-3,28.24-2.1,41.48,3.41,16.41,6.82,24.6,20.69,28.62,37.35,1.22,5.07,2,10.25,3,15.38Z" transform="translate(-157.11 -27.16)"/><path d="M593.19,149.46c9.23-15.31,22-23.25,38.88-25.31,11.83-1.45,22.23,1,31.86,8,5.95,4.35,8.84,10.47,11.78,17.2,5.62-9.22,13.07-16.47,22.79-20.7,14.63-6.37,29.6-7.58,44.44-.4,11.94,5.78,17.19,16.49,20.19,28.56A111.93,111.93,0,0,1,766.21,184c0,24-.09,48,.07,72,0,3.47-.77,4.48-4.33,4.37q-13.23-.43-26.49,0c-3.49.11-4.39-.8-4.36-4.33.17-23.66.45-47.33-.09-71-.21-9.21-.66-18.77-7.11-26.67-7.28-8.91-19.36-9-28.14-3-8.41,5.7-11.4,14.72-13.6,24.12-1.15,4.89-.95,9.81-1,14.73,0,20.33-.1,40.66.07,61,0,3.88-1,5.32-5,5.18-8.49-.29-17-.28-25.49,0-3.65.12-4.69-.72-4.66-4.55.2-25,.26-50,0-75-.07-7.05-1.18-14-5.12-20.38-6.33-10.18-19.57-11.6-28.95-5.5-8.71,5.67-12.4,14.47-14.86,24a38.17,38.17,0,0,0-1,9.71c0,22.16-.06,44.32.1,66.48,0,3.9-1,5.3-5.05,5.17-8.82-.28-17.66-.2-26.49,0-2.78.05-3.61-.67-3.6-3.54q.14-63.48,0-127c0-2.74.59-3.7,3.51-3.63,8.16.2,16.33.16,24.49,0,3-.05,4.19,1,4.1,4C593.08,136.4,593.19,142.56,593.19,149.46Z" transform="translate(-157.11 -27.16)"/><path d="M1282.12,193.13c-.36-16.21,3.56-31.3,14-44.6,9.09-11.61,20.91-18.54,34.89-22.27a76.64,76.64,0,0,1,23.17-2.83c16.54.77,32,4.79,45.05,16.21,13.33,11.71,19.73,26.4,22.13,43.67,2.11,15.16.17,29.59-6.3,43.14-9.32,19.51-25.27,30.65-46.49,34.92-17.84,3.59-34.88,2-51.09-6.15-19.41-9.73-30.27-25.87-34.39-47C1282.11,203.24,1282.51,198.37,1282.12,193.13Z" transform="translate(-157.11 -27.16)"/><path d="M967.5,203.25c.51,8.28,3.11,15.36,8.37,21.08,7.28,7.91,16.93,11,27.33,11.87a74.06,74.06,0,0,0,44-10.09c-.36,8.62,1.63,16.51,1.07,24.57-.17,2.48-.48,3.73-3.37,4.87-9.73,3.85-19.72,5.61-30.08,6.9A87.15,87.15,0,0,1,970,256.41C952.12,249,940.31,235.53,935.33,217c-6.4-23.88-5-47.23,10-67.86a59.34,59.34,0,0,1,38-23.88c13.83-2.62,27.21-2.27,40.58,2.9,17.32,6.69,25.81,20.23,30.13,37.06,2.82,11,3.36,22.3,3.24,33.68,0,3.92-1.2,4.51-4.74,4.49-26.65-.15-53.3-.08-80-.08Z" transform="translate(-157.11 -27.16)"/><path d="M1472.19,148c6-7,11.76-13.32,19.4-17.62a50.26,50.26,0,0,1,31.57-6.4c8.2,1,15.77,2.54,22.68,7.31,10.32,7.12,14.89,17.5,17.34,29.18,3.21,15.38,1.81,31,2,46.48.17,16.5,0,33,.12,49.5,0,3.07-.7,3.93-3.82,3.85q-13.24-.35-26.49,0c-3.1.08-3.86-.75-3.84-3.84.15-20.83.1-41.66.07-62.5a112.25,112.25,0,0,0-3.55-29c-3.2-12-17.23-15.18-25.31-13.35-17.84,4-25.3,17.22-27,32.88-2.64,23.68-.58,47.48-1,71.23-.06,3.68-.81,4.77-4.6,4.62-8.65-.32-17.33-.22-26,0-2.82.06-3.58-.74-3.58-3.57q.14-63.5,0-127c0-2.82.74-3.64,3.57-3.57q12.49.28,25,0c2.85-.07,3.66.78,3.56,3.59C1472,135.86,1472.19,142,1472.19,148Z" transform="translate(-157.11 -27.16)"/><path d="M1236.19,61.61c0,18.55,0,36,0,53.39,0,11.25,0,11.25,11.26,11.25,5.5,0,11,.15,16.5-.05,3.31-.12,4.4,1.13,4.3,4.37-.19,6.16-.2,12.34,0,18.49.1,2.75-.89,3.29-3.39,3.25-8.33-.14-16.67,0-25-.1-2.58,0-3.79.28-3.76,3.38.16,18.83-.05,37.66.17,56.49a29.25,29.25,0,0,0,3.54,13.41,13.72,13.72,0,0,0,12.09,7.69c5.7.29,11.48.57,16.86-1.58,1.4,7.73,1.46,15.48,1.5,23.24,0,2.41-.83,3.9-2.85,4.33-14.25,3-28.6,4-42.51-1.11-11.11-4-16.64-13.4-19.63-24.24a66.77,66.77,0,0,1-2.16-18.43c.18-19-.17-38,.21-57,.11-5.41-1.54-6.68-6.54-6.23s-10.33-.06-15.49.16c-3.06.13-4.42-.45-4.21-4a155.76,155.76,0,0,0,0-17c-.2-3.88.92-5.42,5-5.19,5.81.32,11.67-.06,17.49.14,2.75.1,3.7-.6,3.63-3.52-.2-8.33-.08-16.66-.06-25,0-1.44-.28-2.86,1-4.14C1214.66,83.27,1225,72.81,1236.19,61.61Z" transform="translate(-157.11 -27.16)"/><path d="M1158.19,155.5c-11.12-4.71-22-8.12-33.5-7.13-6.72.58-13.55,1.8-16.64,9.38a12.16,12.16,0,0,0,4.26,14.55c7.39,5.16,16.18,6.81,24.37,10,9.78,3.81,19.43,7.78,25.94,16.81,13.88,19.26,5.84,50.9-20.31,59.32a93.84,93.84,0,0,1-34.13,4.73,148,148,0,0,1-29.15-5c-1.34-.35-3-.86-2.91-3.24.19-8.46.07-16.93.07-26a79.29,79.29,0,0,0,25.07,7.85c8.42,1.12,17.1,1.81,25.21-1.67a12.66,12.66,0,0,0,7.73-9.86c1.07-6.2-1.77-10.69-6.65-13.75-5.83-3.66-12.36-6-18.86-8.19-10.14-3.48-20-7.53-27.52-15.56a29.43,29.43,0,0,1-8-19.22c-.59-10.79,1.37-20.57,8.93-28.95A42.59,42.59,0,0,1,1104,126.45c9.4-2.27,18.89-3.92,28.93-2.49,7.22,1,14.5,1.65,21.64,3.3,2.18.5,3.75,1.16,3.66,4.08C1158,139.15,1158.19,147,1158.19,155.5Z" transform="translate(-157.11 -27.16)"/><path d="M908.19,62c0,2.3,0,3.76,0,5.23q0,93.49.1,187c0,4.78-1.19,6.4-6.1,6.17-8.48-.4-17-.23-25.49,0-2.83.06-3.58-.75-3.57-3.57q.13-78.49,0-157A5.92,5.92,0,0,1,875,94.95C885.9,84.26,896.7,73.42,908.19,62Z" transform="translate(-157.11 -27.16)"/><path d="M798.19,193.75c0-20.82.1-41.65-.08-62.47,0-4,1.13-5.24,5.11-5.11,8.49.27,17,.23,25.49,0,3.56-.09,4.55,1.19,4.55,4.63q-.14,63,0,125.95c0,2.85-.79,3.6-3.59,3.55-9.16-.17-18.33-.22-27.49,0-3.31.09-4.09-.89-4.06-4.11C798.27,235.4,798.19,214.58,798.19,193.75Z" transform="translate(-157.11 -27.16)"/><path d="M816,70.25c4.66,0,9.34.18,14-.07,2.78-.15,3.27.91,3.23,3.4-.13,8.82-.17,17.66,0,26.48.06,2.74-.89,3.28-3.39,3.24-9.16-.13-18.32-.16-27.48,0-3.35.06-4.31-1.22-4.25-4.41.16-8.49.18-17,0-25.48-.06-2.79.95-3.3,3.41-3.22C806.36,70.37,811.19,70.25,816,70.25Z" transform="translate(-157.11 -27.16)"/><path class="cls-1" d="M1649,179.25c-8.49,0-17-.14-25.48.07-3,.08-3.85-.94-3.36-3.65,4.7-26.23,29.31-33.93,48.37-22.21,5.2,3.2,7.5,9,8.53,14.75,2,11,1.74,11-9.56,11Z" transform="translate(-157.11 -27.16)"/><path class="cls-1" d="M1385.2,192.29c.34,9.73-1.13,19-6,27.68-5.18,9.29-12.6,15.23-23.43,16.27-13.21,1.27-23.89-3.15-30.53-14.9-6.95-12.31-7.1-25.79-5.39-39.42.81-6.43,2.35-12.54,6-18.06,8.78-13.07,21.63-17.61,36.53-12.92,13.39,4.21,18.79,14.6,21.76,27.12C1385.35,182.79,1385.14,187.54,1385.2,192.29Z" transform="translate(-157.11 -27.16)"/><path class="cls-1" d="M995.69,179.25c-8.5,0-17-.16-25.49.09-3.07.09-3.35-1.34-3-3.54,4.49-26.38,30-34.18,47.7-22.45,8.25,5.46,10.29,14.43,10.29,23.91,0,3-2.14,1.95-3.52,2C1013,179.29,1004.36,179.25,995.69,179.25Z" transform="translate(-157.11 -27.16)"/></svg>